<?xml version="1.0" standalone="no"?>
<!DOCTYPE svg PUBLIC "-//W3C//DTD SVG 20010904//EN"
 "http://www.w3.org/TR/2001/REC-SVG-20010904/DTD/svg10.dtd">
<svg version="1.0" xmlns="http://www.w3.org/2000/svg"
 width="782.000000pt" height="1280.000000pt" viewBox="0 0 782.000000 1280.000000"
 preserveAspectRatio="xMidYMid meet">
<metadata>
Created by potrace 1.15, written by Peter Selinger 2001-2017
</metadata>
<g transform="translate(0.000000,1280.000000) scale(0.100000,-0.100000)"
fill="#000000" stroke="none">
<path d="M3305 12793 c-11 -3 -58 -16 -105 -29 -47 -13 -114 -29 -149 -35 -61
-9 -153 -48 -166 -69 -3 -5 -17 -10 -30 -10 -24 0 -33 -7 -59 -45 -14 -19 -15
-19 -34 -2 -19 17 -20 17 -36 -8 -9 -14 -25 -25 -35 -25 -9 0 -39 -11 -64 -24
-26 -13 -67 -31 -92 -40 -62 -24 -86 -61 -95 -149 -9 -76 -19 -91 -89 -129
-34 -19 -70 -85 -71 -129 0 -15 -10 -38 -21 -53 -12 -15 -29 -48 -39 -74 -11
-29 -25 -48 -36 -50 -11 -2 -28 -15 -40 -28 -11 -14 -42 -39 -69 -57 -63 -41
-77 -68 -71 -135 4 -42 0 -61 -15 -85 -29 -49 -25 -98 14 -149 30 -39 37 -43
77 -43 40 0 45 -3 54 -28 9 -23 5 -37 -22 -86 -36 -66 -39 -89 -17 -134 15
-32 117 -105 196 -143 34 -15 37 -21 41 -66 4 -41 12 -56 42 -85 20 -20 38
-45 41 -57 3 -11 9 -42 15 -67 17 -80 28 -98 126 -200 55 -58 94 -107 92 -116
-15 -75 -160 -7 -256 120 -41 54 -102 97 -136 97 -9 0 -26 14 -38 31 -38 51
-181 109 -362 146 -34 7 -41 13 -48 41 -7 26 -18 37 -51 51 -66 28 -137 43
-170 35 l-31 -6 52 -22 c62 -26 74 -37 63 -55 -7 -11 -12 -11 -30 1 -14 9 -25
10 -35 3 -60 -44 -65 -46 -85 -36 -10 6 -33 8 -49 5 -17 -4 -32 -1 -36 5 -11
17 -21 14 -67 -25 -48 -40 -99 -64 -138 -64 -35 0 -71 -26 -71 -51 0 -24 -277
-302 -325 -326 -98 -51 -272 -255 -300 -353 -4 -14 -20 -45 -35 -70 -17 -28
-32 -73 -39 -120 -18 -112 -40 -180 -71 -225 -22 -32 -27 -49 -25 -85 3 -42 5
-45 31 -45 34 -1 44 -27 21 -53 -9 -11 -21 -67 -32 -147 -9 -71 -20 -149 -25
-172 -13 -58 1 -97 33 -88 15 5 19 4 12 -3 -5 -5 -19 -12 -30 -14 -18 -3 -20
-12 -21 -83 -1 -44 -7 -111 -12 -150 -8 -49 -8 -72 0 -76 7 -5 -9 -47 -46
-121 -61 -124 -127 -332 -152 -483 -8 -49 -24 -106 -36 -125 -19 -33 -19 -40
-8 -102 7 -36 10 -81 7 -100 -4 -18 -11 -55 -17 -83 -11 -54 -6 -110 17 -193
11 -41 26 -64 62 -98 40 -37 47 -50 43 -74 -4 -26 -1 -29 34 -36 29 -5 40 -3
50 10 12 17 13 16 23 -3 21 -38 13 -88 -20 -125 -30 -35 -32 -56 -3 -56 26 0
27 -30 3 -76 -22 -42 -23 -46 -6 -55 25 -14 21 -31 -14 -65 -35 -33 -126 -169
-165 -245 -32 -63 -118 -389 -105 -402 10 -10 65 102 87 182 18 63 38 91 65
91 12 0 27 17 43 49 14 27 46 67 72 90 71 63 107 52 72 -20 -20 -43 -48 -151
-48 -190 0 -37 24 -55 54 -41 19 8 27 7 45 -11 l22 -22 29 33 c33 40 41 32 29
-28 -5 -25 -12 -115 -15 -200 -3 -90 -12 -173 -20 -199 -8 -25 -14 -62 -14
-83 0 -21 -16 -80 -36 -131 -71 -183 -83 -327 -39 -462 14 -42 32 -90 41 -107
8 -16 14 -46 12 -66 -3 -33 0 -37 23 -42 32 -6 121 -112 113 -135 -3 -8 -28
-31 -55 -51 -27 -20 -49 -40 -49 -46 0 -18 70 -1 111 27 35 23 39 24 39 7 0
-21 -26 -47 -87 -87 -46 -29 -56 -55 -23 -55 11 0 20 -7 20 -15 0 -9 10 -15
26 -15 27 0 51 21 117 103 42 52 67 60 67 24 0 -33 -38 -177 -50 -193 -8 -8
-8 -14 0 -19 37 -23 95 122 115 286 5 42 28 91 37 79 2 -3 32 -49 67 -102 46
-70 72 -101 98 -113 58 -28 97 8 49 46 -14 11 -42 54 -63 96 -35 70 -38 84
-38 158 0 71 4 89 30 141 31 61 60 79 72 47 4 -10 22 -37 40 -61 45 -59 58
-112 45 -187 -15 -91 10 -101 63 -25 23 33 30 56 33 106 2 35 8 64 12 64 5 0
21 -16 37 -37 62 -77 86 -4 33 102 -16 33 -30 69 -30 79 0 23 99 206 112 206
4 0 8 -21 8 -46 0 -32 4 -44 12 -42 12 4 25 42 42 121 4 16 12 27 19 24 9 -3
12 -61 12 -228 0 -191 3 -232 18 -276 10 -29 23 -55 28 -58 18 -12 27 5 20 37
-8 38 -3 78 8 78 5 0 14 -14 21 -30 19 -45 34 -31 40 36 5 48 24 124 37 143 7
11 48 -39 73 -89 26 -52 65 -98 74 -89 2 2 -5 30 -16 62 -22 63 -19 80 10 54
18 -16 42 -23 42 -12 0 3 -9 23 -20 45 -11 22 -20 51 -20 66 0 15 -10 42 -21
61 -18 29 -21 44 -15 95 7 71 15 87 30 66 7 -9 25 -15 45 -14 l33 1 -4 68 c-3
63 -2 67 17 67 12 0 30 7 41 15 28 21 54 18 76 -11 28 -35 33 -24 17 36 -13
49 -24 66 -83 119 -15 13 -26 34 -26 49 l0 25 26 -24 27 -24 -7 25 c-15 49
-19 127 -7 134 19 12 12 36 -24 83 -24 31 -35 56 -35 79 0 43 26 46 35 4 7
-33 24 -41 26 -12 1 9 7 -1 14 -23 8 -22 11 -59 8 -82 -5 -41 -5 -41 94 -140
95 -95 295 -244 309 -230 4 4 -53 69 -127 145 -74 76 -149 163 -168 195 -41
69 -81 167 -88 215 -6 36 -2 33 123 -93 98 -99 152 -164 223 -270 52 -77 114
-163 137 -191 50 -59 61 -82 69 -146 3 -26 13 -55 21 -63 14 -13 14 -23 -1
-90 -10 -42 -15 -85 -12 -97 3 -12 0 -33 -8 -47 -9 -18 -13 -62 -12 -141 2
-111 3 -118 39 -190 20 -41 51 -107 68 -147 18 -39 43 -82 56 -94 13 -12 24
-27 24 -32 0 -5 -17 -37 -37 -71 l-38 -61 -4 -167 c-2 -135 0 -177 13 -215 12
-34 14 -64 10 -109 -8 -76 7 -126 46 -154 16 -12 43 -34 59 -50 17 -17 40 -30
54 -30 34 0 57 -10 57 -24 0 -6 -18 -28 -40 -49 -28 -28 -44 -55 -55 -95 -9
-32 -32 -92 -52 -135 -32 -72 -35 -90 -40 -195 -4 -91 -1 -150 17 -262 33
-220 53 -290 119 -414 32 -61 62 -131 66 -156 13 -79 30 -107 85 -138 28 -16
62 -44 76 -63 26 -36 77 -184 89 -259 4 -25 13 -66 20 -92 11 -36 12 -71 5
-150 -35 -393 -38 -474 -26 -803 5 -144 15 -281 28 -365 23 -149 28 -405 10
-520 -6 -44 -6 -69 0 -77 8 -10 478 -13 2290 -13 l2280 0 -6 33 c-4 17 -16 90
-27 162 -11 72 -24 147 -30 168 -8 30 -7 43 5 61 13 20 12 30 -5 92 -18 63
-19 81 -9 208 6 76 13 142 16 147 2 4 0 36 -5 71 -9 56 -21 751 -23 1273 0
234 19 671 33 743 6 29 8 65 4 81 -5 22 0 39 19 68 29 44 52 151 66 303 5 58
17 161 26 230 10 75 17 197 17 305 1 161 -2 199 -31 360 -38 210 -55 277 -88
360 -20 47 -24 70 -19 106 5 34 -1 74 -19 145 -32 124 -46 205 -46 262 0 58
-24 96 -86 137 -77 51 -80 58 -54 102 37 62 60 142 60 207 0 55 -8 138 -39
438 -6 53 -20 242 -31 420 -11 178 -24 377 -29 443 -5 66 -12 208 -16 315 -11
379 -42 777 -75 985 -11 66 -27 181 -36 255 -9 74 -29 187 -45 250 -15 63 -40
180 -54 260 -74 415 -188 660 -435 940 -227 257 -347 363 -503 445 -81 43
-303 136 -405 170 -54 17 -248 142 -312 199 -19 18 -70 49 -112 70 -64 32 -84
37 -115 32 -154 -25 -169 -21 -310 93 -185 149 -223 190 -276 292 -28 55 -52
119 -58 154 -6 33 -23 112 -39 175 -15 63 -33 140 -39 171 -13 62 -123 290
-202 417 -28 45 -71 99 -96 120 -116 96 -132 114 -170 194 -36 75 -41 82 -95
109 -38 19 -78 53 -125 104 -98 110 -130 122 -227 89 -37 -13 -53 -14 -72 -5
-14 6 -44 11 -67 11 -23 1 -53 7 -67 15 -24 14 -130 19 -175 8z m-1252 -1055
c-7 -64 -12 -76 -23 -58 -12 19 -12 42 0 74 15 40 29 31 23 -16z m57 -204 c20
-44 21 -74 1 -74 -5 0 -12 7 -15 16 -4 11 -14 14 -35 9 -34 -7 -42 11 -29 63
7 25 14 32 32 32 18 0 29 -10 46 -46z m2006 -1713 c22 -6 60 -13 86 -16 68 -9
71 -17 48 -121 -38 -165 -38 -417 -1 -697 5 -40 6 -95 1 -130 -7 -45 -5 -80 5
-127 8 -36 21 -126 30 -201 8 -74 24 -169 34 -210 22 -86 35 -165 51 -304 7
-57 20 -115 31 -137 54 -106 191 -759 175 -840 -4 -22 -41 -86 -94 -161 -48
-69 -99 -146 -114 -171 -15 -25 -34 -46 -42 -46 -25 0 -41 61 -39 150 3 154
-25 329 -64 397 -13 25 -86 99 -171 176 -81 73 -178 166 -217 206 -38 40 -146
130 -240 200 -161 121 -224 180 -322 298 -23 28 -76 76 -117 107 -42 31 -89
76 -106 100 -38 56 -90 97 -179 141 -40 20 -75 43 -78 51 -3 9 1 55 11 103 9
47 16 133 16 191 0 127 15 255 35 305 21 49 75 107 162 172 88 66 123 107 167
195 19 37 37 71 40 77 4 6 33 1 78 -15 85 -29 149 -30 243 -5 136 36 193 70
384 229 68 57 130 101 137 98 6 -2 29 -9 50 -15z m-3890 -1966 c-9 -29 -20
-56 -25 -59 -10 -6 14 128 26 147 16 24 15 -32 -1 -88z m-49 -117 c-3 -8 -6
-5 -6 6 -1 11 2 17 5 13 3 -3 4 -12 1 -19z m1659 -1437 c6 -62 5 -71 -10 -71
-12 0 -16 10 -16 48 0 26 -5 65 -10 86 -5 22 -6 44 -3 49 12 19 33 -42 39
-112z m-1346 -525 c0 -7 -13 -43 -30 -78 -35 -79 -70 -207 -71 -262 0 -38 -1
-39 -11 -16 -21 53 14 226 68 333 23 44 44 55 44 23z m42 -478 c-15 -15 -26
-4 -18 18 5 13 9 15 18 6 9 -9 9 -15 0 -24z m95 -70 c6 -64 -13 -158 -32 -158
-14 0 -25 22 -25 50 0 9 -7 24 -16 31 -36 30 -42 109 -9 109 10 0 15 -11 15
-34 0 -30 3 -33 21 -29 26 7 34 26 20 51 -12 23 -4 59 11 44 5 -5 12 -34 15
-64z"/>
</g>
</svg>
